<svg xmlns="http://www.w3.org/2000/svg" width="375" viewBox="0 0 375 375" height="375" version="1.0"><defs><clipPath id="a"><path d="M 23.457031 16.015625 L 356.457031 16.015625 L 356.457031 353.515625 L 23.457031 353.515625 Z M 23.457031 16.015625"/></clipPath></defs><path fill="#FFF" d="M 227.398438 184.765625 C 227.398438 186.082031 227.335938 187.394531 227.207031 188.703125 C 227.078125 190.011719 226.882812 191.3125 226.625 192.601562 C 226.371094 193.890625 226.050781 195.164062 225.667969 196.425781 C 225.285156 197.683594 224.84375 198.921875 224.339844 200.136719 C 223.835938 201.351562 223.273438 202.539062 222.652344 203.699219 C 222.03125 204.859375 221.355469 205.984375 220.621094 207.078125 C 219.890625 208.171875 219.105469 209.230469 218.269531 210.246094 C 217.4375 211.261719 216.550781 212.234375 215.621094 213.164062 C 214.691406 214.097656 213.714844 214.976562 212.695312 215.8125 C 211.679688 216.648438 210.621094 217.429688 209.527344 218.160156 C 208.433594 218.890625 207.304688 219.566406 206.144531 220.1875 C 204.980469 220.808594 203.792969 221.367188 202.574219 221.871094 C 201.359375 222.375 200.121094 222.816406 198.859375 223.199219 C 197.597656 223.582031 196.324219 223.902344 195.03125 224.15625 C 193.738281 224.414062 192.4375 224.605469 191.128906 224.734375 C 189.816406 224.863281 188.503906 224.929688 187.1875 224.929688 C 185.871094 224.929688 184.554688 224.863281 183.246094 224.734375 C 181.933594 224.605469 180.632812 224.414062 179.339844 224.15625 C 178.050781 223.902344 176.773438 223.582031 175.511719 223.199219 C 174.253906 222.816406 173.015625 222.375 171.796875 221.871094 C 170.582031 221.367188 169.390625 220.808594 168.230469 220.1875 C 167.070312 219.566406 165.941406 218.890625 164.84375 218.160156 C 163.75 217.429688 162.695312 216.648438 161.675781 215.8125 C 160.65625 214.976562 159.683594 214.097656 158.75 213.164062 C 157.820312 212.234375 156.9375 211.261719 156.101562 210.246094 C 155.265625 209.230469 154.480469 208.171875 153.75 207.078125 C 153.019531 205.984375 152.34375 204.859375 151.722656 203.699219 C 151.101562 202.539062 150.539062 201.351562 150.035156 200.136719 C 149.53125 198.921875 149.085938 197.683594 148.703125 196.425781 C 148.324219 195.164062 148.003906 193.890625 147.746094 192.601562 C 147.488281 191.3125 147.296875 190.011719 147.167969 188.703125 C 147.039062 187.394531 146.972656 186.082031 146.972656 184.765625 C 146.972656 183.449219 147.039062 182.136719 147.167969 180.828125 C 147.296875 179.519531 147.488281 178.21875 147.746094 176.929688 C 148.003906 175.640625 148.324219 174.367188 148.703125 173.105469 C 149.085938 171.847656 149.53125 170.609375 150.035156 169.394531 C 150.539062 168.179688 151.101562 166.992188 151.722656 165.832031 C 152.34375 164.671875 153.019531 163.546875 153.75 162.453125 C 154.480469 161.359375 155.265625 160.304688 156.101562 159.285156 C 156.9375 158.269531 157.820312 157.296875 158.75 156.367188 C 159.683594 155.433594 160.65625 154.554688 161.675781 153.71875 C 162.695312 152.882812 163.75 152.101562 164.84375 151.371094 C 165.941406 150.640625 167.070312 149.964844 168.230469 149.34375 C 169.390625 148.722656 170.582031 148.164062 171.796875 147.660156 C 173.015625 147.15625 174.253906 146.714844 175.511719 146.332031 C 176.773438 145.949219 178.050781 145.628906 179.339844 145.375 C 180.632812 145.117188 181.933594 144.925781 183.246094 144.796875 C 184.554688 144.667969 185.871094 144.601562 187.1875 144.601562 C 188.503906 144.601562 189.816406 144.667969 191.128906 144.796875 C 192.4375 144.925781 193.738281 145.117188 195.03125 145.375 C 196.324219 145.628906 197.597656 145.949219 198.859375 146.332031 C 200.121094 146.714844 201.359375 147.15625 202.574219 147.660156 C 203.792969 148.164062 204.980469 148.722656 206.144531 149.34375 C 207.304688 149.964844 208.433594 150.640625 209.527344 151.371094 C 210.621094 152.101562 211.679688 152.882812 212.695312 153.71875 C 213.714844 154.554688 214.691406 155.433594 215.621094 156.367188 C 216.550781 157.296875 217.4375 158.269531 218.269531 159.285156 C 219.105469 160.304688 219.890625 161.359375 220.621094 162.453125 C 221.355469 163.546875 222.03125 164.671875 222.652344 165.832031 C 223.273438 166.992188 223.835938 168.179688 224.339844 169.394531 C 224.84375 170.609375 225.285156 171.847656 225.667969 173.105469 C 226.050781 174.367188 226.371094 175.640625 226.625 176.929688 C 226.882812 178.21875 227.078125 179.519531 227.207031 180.828125 C 227.335938 182.136719 227.398438 183.449219 227.398438 184.765625 Z M 227.398438 184.765625"/><g clip-path="url(#a)"><path fill="#FFF" d="M 187.1875 16.105469 C 108.496094 16.105469 42.390625 69.863281 23.636719 142.601562 C 23.460938 143.257812 23.367188 143.921875 23.359375 144.601562 C 23.359375 149.015625 26.953125 152.632812 31.402344 152.632812 L 99.496094 152.632812 C 100.269531 152.636719 101.023438 152.53125 101.761719 152.3125 C 102.503906 152.097656 103.195312 151.78125 103.84375 151.363281 C 104.492188 150.945312 105.066406 150.441406 105.566406 149.859375 C 106.066406 149.273438 106.476562 148.628906 106.789062 147.925781 C 106.789062 147.925781 106.890625 147.734375 106.9375 147.632812 C 120.972656 117.382812 151.628906 96.390625 187.214844 96.390625 C 236.074219 96.390625 275.683594 135.9375 275.683594 184.734375 C 275.683594 233.535156 236.089844 273.082031 187.230469 273.082031 C 151.65625 273.082031 121.003906 252.089844 106.953125 221.839844 C 106.90625 221.738281 106.804688 221.546875 106.804688 221.546875 C 105.507812 218.691406 102.648438 216.839844 99.511719 216.839844 L 31.414062 216.839844 C 26.96875 216.839844 23.371094 220.425781 23.371094 224.871094 C 23.378906 225.550781 23.472656 226.214844 23.652344 226.871094 C 42.402344 299.609375 108.527344 353.367188 187.199219 353.367188 C 280.472656 353.351562 356.214844 277.847656 356.214844 184.707031 C 356.214844 91.566406 280.605469 16.046875 187.347656 16.046875 Z M 187.1875 16.105469"/></g></svg>