<svg xmlns="http://www.w3.org/2000/svg" width="900" viewBox="0 0 900 300" height="300" version="1.0"><defs><clipPath id="a"><path d="M 113.609375 42.214844 L 340.726562 42.214844 L 340.726562 274 L 113.609375 274 Z M 113.609375 42.214844"/></clipPath></defs><path fill="#545454" d="M 252.703125 158.140625 C 252.703125 159.042969 252.660156 159.945312 252.570312 160.84375 C 252.484375 161.746094 252.351562 162.636719 252.175781 163.523438 C 252.003906 164.410156 251.785156 165.285156 251.523438 166.148438 C 251.261719 167.015625 250.960938 167.863281 250.617188 168.699219 C 250.273438 169.535156 249.890625 170.351562 249.464844 171.148438 C 249.042969 171.945312 248.582031 172.71875 248.082031 173.46875 C 247.582031 174.222656 247.046875 174.945312 246.480469 175.644531 C 245.910156 176.34375 245.304688 177.011719 244.671875 177.652344 C 244.035156 178.289062 243.371094 178.898438 242.675781 179.46875 C 241.984375 180.042969 241.261719 180.582031 240.515625 181.082031 C 239.769531 181.585938 239 182.050781 238.207031 182.476562 C 237.414062 182.902344 236.601562 183.285156 235.773438 183.632812 C 234.941406 183.980469 234.097656 184.28125 233.238281 184.546875 C 232.378906 184.808594 231.507812 185.027344 230.628906 185.203125 C 229.746094 185.378906 228.859375 185.511719 227.964844 185.601562 C 227.070312 185.6875 226.175781 185.734375 225.277344 185.734375 C 224.378906 185.734375 223.484375 185.6875 222.589844 185.601562 C 221.695312 185.511719 220.808594 185.378906 219.925781 185.203125 C 219.046875 185.027344 218.175781 184.808594 217.316406 184.546875 C 216.457031 184.28125 215.609375 183.980469 214.78125 183.632812 C 213.953125 183.285156 213.140625 182.902344 212.347656 182.476562 C 211.554688 182.050781 210.785156 181.585938 210.039062 181.082031 C 209.292969 180.582031 208.570312 180.042969 207.878906 179.46875 C 207.183594 178.898438 206.519531 178.289062 205.882812 177.652344 C 205.25 177.011719 204.644531 176.34375 204.074219 175.644531 C 203.507812 174.945312 202.972656 174.222656 202.472656 173.46875 C 201.972656 172.71875 201.511719 171.945312 201.089844 171.148438 C 200.664062 170.351562 200.28125 169.535156 199.9375 168.699219 C 199.59375 167.863281 199.292969 167.015625 199.03125 166.148438 C 198.769531 165.285156 198.550781 164.410156 198.378906 163.523438 C 198.203125 162.636719 198.070312 161.746094 197.980469 160.84375 C 197.894531 159.945312 197.851562 159.042969 197.851562 158.140625 C 197.851562 157.238281 197.894531 156.335938 197.980469 155.4375 C 198.070312 154.535156 198.203125 153.644531 198.378906 152.757812 C 198.550781 151.871094 198.769531 150.996094 199.03125 150.128906 C 199.292969 149.265625 199.59375 148.414062 199.9375 147.582031 C 200.28125 146.746094 200.664062 145.929688 201.089844 145.132812 C 201.511719 144.335938 201.972656 143.5625 202.472656 142.808594 C 202.972656 142.058594 203.507812 141.335938 204.074219 140.636719 C 204.644531 139.9375 205.25 139.269531 205.882812 138.628906 C 206.519531 137.988281 207.183594 137.382812 207.878906 136.8125 C 208.570312 136.238281 209.292969 135.699219 210.039062 135.199219 C 210.785156 134.695312 211.554688 134.230469 212.347656 133.804688 C 213.140625 133.378906 213.953125 132.992188 214.78125 132.648438 C 215.609375 132.300781 216.457031 131.996094 217.316406 131.734375 C 218.175781 131.472656 219.046875 131.253906 219.925781 131.078125 C 220.808594 130.902344 221.695312 130.769531 222.589844 130.679688 C 223.484375 130.589844 224.378906 130.546875 225.277344 130.546875 C 226.175781 130.546875 227.070312 130.589844 227.964844 130.679688 C 228.859375 130.769531 229.746094 130.902344 230.628906 131.078125 C 231.507812 131.253906 232.378906 131.472656 233.238281 131.734375 C 234.097656 131.996094 234.941406 132.300781 235.773438 132.648438 C 236.601562 132.992188 237.414062 133.378906 238.207031 133.804688 C 239 134.230469 239.769531 134.695312 240.515625 135.199219 C 241.261719 135.699219 241.984375 136.238281 242.675781 136.8125 C 243.371094 137.382812 244.035156 137.988281 244.671875 138.628906 C 245.304688 139.269531 245.910156 139.9375 246.480469 140.636719 C 247.046875 141.335938 247.582031 142.058594 248.082031 142.808594 C 248.582031 143.5625 249.042969 144.335938 249.464844 145.132812 C 249.890625 145.929688 250.273438 146.746094 250.617188 147.582031 C 250.960938 148.414062 251.261719 149.265625 251.523438 150.128906 C 251.785156 150.996094 252.003906 151.871094 252.175781 152.757812 C 252.351562 153.644531 252.484375 154.535156 252.570312 155.4375 C 252.660156 156.335938 252.703125 157.238281 252.703125 158.140625 Z M 252.703125 158.140625"/><g clip-path="url(#a)"><path fill="#545454" d="M 225.277344 42.269531 C 171.609375 42.269531 126.519531 79.203125 113.730469 129.171875 C 113.609375 129.625 113.546875 130.082031 113.539062 130.546875 C 113.539062 133.578125 115.992188 136.066406 119.023438 136.066406 L 165.46875 136.066406 C 165.996094 136.066406 166.511719 135.996094 167.015625 135.84375 C 167.519531 135.695312 167.992188 135.480469 168.433594 135.191406 C 168.875 134.90625 169.265625 134.558594 169.609375 134.160156 C 169.949219 133.757812 170.230469 133.316406 170.441406 132.832031 C 170.441406 132.832031 170.511719 132.699219 170.542969 132.628906 C 180.117188 111.847656 201.023438 97.425781 225.296875 97.425781 C 258.621094 97.425781 285.636719 124.59375 285.636719 158.121094 C 285.636719 191.644531 258.632812 218.8125 225.308594 218.8125 C 201.046875 218.8125 180.136719 204.390625 170.554688 183.609375 C 170.523438 183.539062 170.453125 183.410156 170.453125 183.410156 C 169.570312 181.449219 167.621094 180.175781 165.480469 180.175781 L 119.035156 180.175781 C 116 180.175781 113.550781 182.640625 113.550781 185.691406 C 113.554688 186.160156 113.617188 186.617188 113.742188 187.066406 C 126.53125 237.039062 171.628906 273.96875 225.289062 273.96875 C 288.902344 273.960938 340.5625 222.089844 340.5625 158.101562 C 340.5625 94.109375 288.992188 42.230469 225.386719 42.230469 Z M 225.277344 42.269531"/></g><g fill="#545454"><g><g><path d="M 64.28125 -75.625 L 3.78125 -75.625 L 3.78125 0 L 18.90625 0 L 18.90625 -30.25 L 64.28125 -30.25 C 72.597656 -30.25 79.40625 -37.054688 79.40625 -45.375 L 79.40625 -60.5 C 79.40625 -68.816406 72.597656 -75.625 64.28125 -75.625 Z M 18.90625 -45.375 L 18.90625 -60.5 L 64.28125 -60.5 L 64.28125 -45.375 Z M 18.90625 -45.375" transform="translate(373.073 123.99)"/></g></g></g><g fill="#545454"><g><g><path d="M 64.28125 0 C 72.695312 0 79.40625 -6.902344 79.40625 -15.125 L 79.40625 -60.5 C 79.40625 -68.816406 72.597656 -75.625 64.28125 -75.625 L 18.90625 -75.625 C 10.585938 -75.625 3.78125 -68.816406 3.78125 -60.5 L 3.78125 -15.125 C 3.78125 -6.804688 10.585938 0 18.90625 0 Z M 18.90625 -60.5 L 64.28125 -60.5 L 64.28125 -15.125 L 18.90625 -15.125 Z M 18.90625 -60.5" transform="translate(456.234 123.99)"/></g></g></g><g fill="#545454"><g><g><path d="M 79.40625 0 L 79.40625 -15.125 L 18.90625 -15.125 L 18.90625 -75.625 L 3.78125 -75.625 L 3.78125 -15.125 C 3.78125 -6.804688 10.585938 0 18.90625 0 Z M 79.40625 0" transform="translate(539.394 123.99)"/></g></g></g><g fill="#545454"><g><g><path d="M 79.40625 -75.625 L 18.90625 -75.625 C 10.585938 -75.625 3.78125 -68.816406 3.78125 -60.5 L 3.78125 -15.125 C 3.78125 -6.804688 10.585938 0 18.90625 0 L 79.40625 0 L 79.40625 -15.125 L 18.90625 -15.125 L 18.90625 -30.25 L 79.40625 -30.25 L 79.40625 -45.375 L 18.90625 -45.375 L 18.90625 -60.5 L 79.40625 -60.5 Z M 79.40625 -75.625" transform="translate(622.554 123.99)"/></g></g></g><g fill="#545454"><g><g><path d="M 79.40625 -75.625 L 18.90625 -75.625 C 10.585938 -75.625 3.78125 -68.816406 3.78125 -60.5 L 3.78125 -45.375 C 3.78125 -37.054688 10.585938 -30.25 18.90625 -30.25 L 64.28125 -30.25 L 64.28125 -15.125 L 3.78125 -15.125 L 3.78125 0 L 64.28125 0 C 72.597656 0 79.40625 -6.804688 79.40625 -15.125 L 79.40625 -30.25 C 79.40625 -38.566406 72.597656 -45.375 64.28125 -45.375 L 18.90625 -45.375 L 18.90625 -60.5 L 79.40625 -60.5 Z M 79.40625 -75.625" transform="translate(705.714 123.99)"/></g></g></g><g fill="#545454"><g><g><path d="M 79.40625 0 L 79.40625 -15.125 L 49.15625 -15.125 L 49.15625 -60.5 L 79.40625 -60.5 L 79.40625 -75.625 L 3.78125 -75.625 L 3.78125 -60.5 L 34.03125 -60.5 L 34.03125 -15.125 L 3.78125 -15.125 L 3.78125 0 Z M 79.40625 0" transform="translate(373.073 255.99)"/></g></g></g><g fill="#545454"><g><g><path d="M 18.90625 0 L 18.90625 -49.816406 L 66.453125 -2.269531 C 67.871094 -0.851562 69.761719 0 71.84375 0 C 76.003906 0 79.40625 -3.402344 79.40625 -7.5625 L 79.40625 -75.625 L 64.28125 -75.625 L 64.28125 -25.808594 L 16.730469 -73.355469 C 15.3125 -74.773438 13.421875 -75.625 11.34375 -75.625 C 7.183594 -75.625 3.78125 -72.222656 3.78125 -68.0625 L 3.78125 0 Z M 18.90625 0" transform="translate(456.234 255.99)"/></g></g></g><g fill="#545454"><g><g><path d="M 64.28125 0 C 72.597656 0 79.40625 -6.804688 79.40625 -15.125 L 79.40625 -60.5 C 79.40625 -68.816406 72.597656 -75.625 64.28125 -75.625 L 3.78125 -75.625 L 3.78125 0 Z M 18.90625 -60.5 L 64.28125 -60.5 L 64.28125 -15.125 L 18.90625 -15.125 Z M 18.90625 -60.5" transform="translate(539.394 255.99)"/></g></g></g><g fill="#545454"><g><g><path d="M 64.28125 0 C 72.695312 0 79.40625 -6.902344 79.40625 -15.125 L 79.40625 -60.5 C 79.40625 -68.816406 72.597656 -75.625 64.28125 -75.625 L 18.90625 -75.625 C 10.585938 -75.625 3.78125 -68.816406 3.78125 -60.5 L 3.78125 -15.125 C 3.78125 -6.804688 10.585938 0 18.90625 0 Z M 18.90625 -60.5 L 64.28125 -60.5 L 64.28125 -15.125 L 18.90625 -15.125 Z M 18.90625 -60.5" transform="translate(622.554 255.99)"/></g></g></g></svg>