<svg xmlns="http://www.w3.org/2000/svg" width="224.88" viewBox="0 0 224.88 75" height="75" version="1.0"><defs><clipPath id="a"><path d="M 0 0.0195312 L 224.761719 0.0195312 L 224.761719 74.980469 L 0 74.980469 Z M 0 0.0195312"/></clipPath><clipPath id="b"><path d="M 28.386719 10.566406 L 85.136719 10.566406 L 85.136719 68.5 L 28.386719 68.5 Z M 28.386719 10.566406"/></clipPath></defs><g clip-path="url(#a)"><path fill="#FFF" d="M 0 0.0195312 L 224.878906 0.0195312 L 224.878906 82.476562 L 0 82.476562 Z M 0 0.0195312"/><path fill="#FFF" d="M 0 0.0195312 L 224.878906 0.0195312 L 224.878906 74.980469 L 0 74.980469 Z M 0 0.0195312"/><path fill="#545454" d="M 0 0.0195312 L 224.878906 0.0195312 L 224.878906 74.980469 L 0 74.980469 Z M 0 0.0195312"/></g><path fill="#FFF" d="M 63.140625 39.535156 C 63.140625 39.988281 63.097656 40.433594 63.011719 40.878906 C 62.921875 41.324219 62.792969 41.753906 62.621094 42.171875 C 62.449219 42.589844 62.238281 42.988281 61.988281 43.363281 C 61.738281 43.742188 61.453125 44.089844 61.136719 44.410156 C 60.816406 44.730469 60.472656 45.015625 60.097656 45.265625 C 59.722656 45.519531 59.328125 45.730469 58.910156 45.902344 C 58.496094 46.078125 58.066406 46.207031 57.625 46.296875 C 57.183594 46.382812 56.738281 46.429688 56.289062 46.429688 C 55.839844 46.429688 55.394531 46.382812 54.953125 46.296875 C 54.511719 46.207031 54.082031 46.078125 53.667969 45.902344 C 53.25 45.730469 52.855469 45.519531 52.480469 45.265625 C 52.109375 45.015625 51.761719 44.730469 51.445312 44.410156 C 51.125 44.089844 50.839844 43.742188 50.589844 43.363281 C 50.339844 42.988281 50.128906 42.589844 49.957031 42.171875 C 49.785156 41.753906 49.65625 41.324219 49.566406 40.878906 C 49.480469 40.433594 49.4375 39.988281 49.4375 39.535156 C 49.4375 39.082031 49.480469 38.632812 49.566406 38.1875 C 49.65625 37.746094 49.785156 37.3125 49.957031 36.894531 C 50.128906 36.476562 50.339844 36.078125 50.589844 35.703125 C 50.839844 35.328125 51.125 34.980469 51.445312 34.660156 C 51.761719 34.339844 52.109375 34.054688 52.480469 33.800781 C 52.855469 33.550781 53.25 33.335938 53.667969 33.164062 C 54.082031 32.992188 54.511719 32.859375 54.953125 32.773438 C 55.394531 32.683594 55.839844 32.640625 56.289062 32.640625 C 56.738281 32.640625 57.183594 32.683594 57.625 32.773438 C 58.066406 32.859375 58.496094 32.992188 58.910156 33.164062 C 59.328125 33.335938 59.722656 33.550781 60.097656 33.800781 C 60.472656 34.054688 60.816406 34.339844 61.136719 34.660156 C 61.453125 34.980469 61.738281 35.328125 61.988281 35.703125 C 62.238281 36.078125 62.449219 36.476562 62.621094 36.894531 C 62.792969 37.3125 62.921875 37.746094 63.011719 38.1875 C 63.097656 38.632812 63.140625 39.082031 63.140625 39.535156 Z M 63.140625 39.535156"/><g clip-path="url(#b)"><path fill="#FFF" d="M 56.289062 10.582031 C 42.878906 10.582031 31.613281 19.808594 28.417969 32.296875 C 28.386719 32.410156 28.371094 32.523438 28.371094 32.640625 C 28.371094 33.398438 28.980469 34.019531 29.742188 34.019531 L 41.34375 34.019531 C 41.613281 34.019531 41.859375 33.945312 42.085938 33.800781 C 42.3125 33.652344 42.480469 33.457031 42.589844 33.210938 C 42.589844 33.210938 42.605469 33.175781 42.613281 33.160156 C 45.003906 27.96875 50.230469 24.363281 56.292969 24.363281 C 64.621094 24.363281 71.371094 31.152344 71.371094 39.527344 C 71.371094 47.90625 64.625 54.695312 56.296875 54.695312 C 50.234375 54.695312 45.011719 51.089844 42.617188 45.898438 C 42.609375 45.878906 42.589844 45.847656 42.589844 45.847656 C 42.371094 45.359375 41.882812 45.039062 41.347656 45.039062 L 29.742188 45.039062 C 28.984375 45.039062 28.371094 45.65625 28.371094 46.417969 C 28.375 46.535156 28.390625 46.648438 28.421875 46.761719 C 31.617188 59.246094 42.882812 68.476562 56.292969 68.476562 C 72.1875 68.472656 85.09375 55.511719 85.09375 39.523438 C 85.09375 23.535156 72.210938 10.570312 56.316406 10.570312 Z M 56.289062 10.582031"/></g><g fill="#FFF"><g><g><path d="M 16.0625 -18.894531 L 0.945312 -18.894531 L 0.945312 0 L 4.722656 0 L 4.722656 -7.558594 L 16.0625 -7.558594 C 18.140625 -7.558594 19.839844 -9.257812 19.839844 -11.335938 L 19.839844 -15.117188 C 19.839844 -17.195312 18.140625 -18.894531 16.0625 -18.894531 Z M 4.722656 -11.335938 L 4.722656 -15.117188 L 16.0625 -15.117188 L 16.0625 -11.335938 Z M 4.722656 -11.335938" transform="translate(93.219 31.229)"/></g></g></g><g fill="#FFF"><g><g><path d="M 16.0625 0 C 18.164062 0 19.839844 -1.722656 19.839844 -3.777344 L 19.839844 -15.117188 C 19.839844 -17.195312 18.140625 -18.894531 16.0625 -18.894531 L 4.722656 -18.894531 C 2.644531 -18.894531 0.945312 -17.195312 0.945312 -15.117188 L 0.945312 -3.777344 C 0.945312 -1.699219 2.644531 0 4.722656 0 Z M 4.722656 -15.117188 L 16.0625 -15.117188 L 16.0625 -3.777344 L 4.722656 -3.777344 Z M 4.722656 -15.117188" transform="translate(113.999 31.229)"/></g></g></g><g fill="#FFF"><g><g><path d="M 19.839844 0 L 19.839844 -3.777344 L 4.722656 -3.777344 L 4.722656 -18.894531 L 0.945312 -18.894531 L 0.945312 -3.777344 C 0.945312 -1.699219 2.644531 0 4.722656 0 Z M 19.839844 0" transform="translate(134.779 31.229)"/></g></g></g><g fill="#FFF"><g><g><path d="M 19.839844 -18.894531 L 4.722656 -18.894531 C 2.644531 -18.894531 0.945312 -17.195312 0.945312 -15.117188 L 0.945312 -3.777344 C 0.945312 -1.699219 2.644531 0 4.722656 0 L 19.839844 0 L 19.839844 -3.777344 L 4.722656 -3.777344 L 4.722656 -7.558594 L 19.839844 -7.558594 L 19.839844 -11.335938 L 4.722656 -11.335938 L 4.722656 -15.117188 L 19.839844 -15.117188 Z M 19.839844 -18.894531" transform="translate(155.559 31.229)"/></g></g></g><g fill="#FFF"><g><g><path d="M 19.839844 -18.894531 L 4.722656 -18.894531 C 2.644531 -18.894531 0.945312 -17.195312 0.945312 -15.117188 L 0.945312 -11.335938 C 0.945312 -9.257812 2.644531 -7.558594 4.722656 -7.558594 L 16.0625 -7.558594 L 16.0625 -3.777344 L 0.945312 -3.777344 L 0.945312 0 L 16.0625 0 C 18.140625 0 19.839844 -1.699219 19.839844 -3.777344 L 19.839844 -7.558594 C 19.839844 -9.636719 18.140625 -11.335938 16.0625 -11.335938 L 4.722656 -11.335938 L 4.722656 -15.117188 L 19.839844 -15.117188 Z M 19.839844 -18.894531" transform="translate(176.339 31.229)"/></g></g></g><g fill="#FFF"><g><g><path d="M 19.839844 0 L 19.839844 -3.777344 L 12.28125 -3.777344 L 12.28125 -15.117188 L 19.839844 -15.117188 L 19.839844 -18.894531 L 0.945312 -18.894531 L 0.945312 -15.117188 L 8.503906 -15.117188 L 8.503906 -3.777344 L 0.945312 -3.777344 L 0.945312 0 Z M 19.839844 0" transform="translate(93.219 63.822)"/></g></g></g><g fill="#FFF"><g><g><path d="M 4.722656 0 L 4.722656 -12.449219 L 16.605469 -0.566406 C 16.957031 -0.210938 17.429688 0 17.949219 0 C 18.992188 0 19.839844 -0.851562 19.839844 -1.890625 L 19.839844 -18.894531 L 16.0625 -18.894531 L 16.0625 -6.449219 L 4.179688 -18.328125 C 3.828125 -18.683594 3.355469 -18.894531 2.835938 -18.894531 C 1.796875 -18.894531 0.945312 -18.046875 0.945312 -17.007812 L 0.945312 0 Z M 4.722656 0" transform="translate(113.999 63.822)"/></g></g></g><g fill="#FFF"><g><g><path d="M 16.0625 0 C 18.140625 0 19.839844 -1.699219 19.839844 -3.777344 L 19.839844 -15.117188 C 19.839844 -17.195312 18.140625 -18.894531 16.0625 -18.894531 L 0.945312 -18.894531 L 0.945312 0 Z M 4.722656 -15.117188 L 16.0625 -15.117188 L 16.0625 -3.777344 L 4.722656 -3.777344 Z M 4.722656 -15.117188" transform="translate(134.779 63.822)"/></g></g></g><g fill="#FFF"><g><g><path d="M 16.0625 0 C 18.164062 0 19.839844 -1.722656 19.839844 -3.777344 L 19.839844 -15.117188 C 19.839844 -17.195312 18.140625 -18.894531 16.0625 -18.894531 L 4.722656 -18.894531 C 2.644531 -18.894531 0.945312 -17.195312 0.945312 -15.117188 L 0.945312 -3.777344 C 0.945312 -1.699219 2.644531 0 4.722656 0 Z M 4.722656 -15.117188 L 16.0625 -15.117188 L 16.0625 -3.777344 L 4.722656 -3.777344 Z M 4.722656 -15.117188" transform="translate(155.559 63.822)"/></g></g></g></svg>